<svg preserveAspectRatio="none" overflow="visible" style="display: block;" width="59.5584" height="46.5314" viewBox="0 0 59.5584 46.5314" fill="none" xmlns="http://www.w3.org/2000/svg">
<g id="Group 455">
<path id="Vector" d="M0 26.1608C0.131491 25.5535 0.23011 24.9461 0.394474 24.3552C1.49571 20.4978 4.8323 17.7237 8.84279 17.3297C9.04002 17.3133 9.22082 17.2805 9.51668 17.2476C9.51668 16.2464 9.45093 15.2615 9.51668 14.293C10.1577 7.02131 16.0091 0.947883 23.2575 0.12715C29.3554 -0.562266 34.3192 1.55523 38.0832 6.39755C38.3626 6.75868 38.5762 6.74226 38.9543 6.61094C45.5782 4.11591 52.5143 9.12239 52.2185 16.1971C52.202 16.6239 52.1363 17.0507 52.087 17.4939C52.1856 17.5431 52.2842 17.6088 52.3828 17.6416C59.3519 19.677 62.1789 28.5574 56.607 34.3846C54.8318 36.2394 52.7444 37.2571 50.1639 37.1586C49.5065 37.1422 48.849 37.1586 48.1915 37.1586C47.3368 37.1586 46.9095 36.8468 46.8931 36.2394C46.8931 35.6157 47.3204 35.3038 48.208 35.2874C49.2599 35.2874 50.3118 35.3366 51.3473 35.2053C52.0705 35.1232 52.8595 34.9098 53.4676 34.5323C58.7437 31.1509 58.941 24.6507 54.8812 21.0723C53.7635 20.0874 52.4486 19.4965 51.0022 19.201C50.0324 19.004 49.8352 18.725 50.0817 17.7565C51.2158 13.2753 48.5367 8.94183 44.0331 7.97336C42.2087 7.57941 40.45 7.85846 38.7899 8.69561C37.9352 9.12239 37.6722 9.05673 37.1627 8.28524C34.0234 3.47574 28.3857 0.997128 22.9123 2.01484C17.1432 3.08179 12.7711 7.33319 11.5712 13.0783C11.2425 14.6705 11.2096 16.2628 11.4397 17.8714C11.5712 18.7086 11.2754 19.0697 10.4207 19.0697C7.72511 19.0861 5.3747 19.9068 3.64888 22.0571C0.904002 25.455 1.38066 30.3301 4.73369 33.4818C6.03216 34.6964 7.54431 35.3038 9.31944 35.2874C10.0098 35.2874 10.7165 35.2874 11.4069 35.2874C11.9821 35.3038 12.3437 35.6649 12.3437 36.1738C12.3437 36.699 12.015 37.1094 11.4397 37.1094C10.1906 37.1094 8.8921 37.2079 7.6758 36.9617C3.7475 36.1409 1.54502 33.4489 0.361601 29.8049C0.197237 29.296 0.115055 28.7543 0 28.2291C0 27.5396 0 26.8338 0 26.1444L0 26.1608Z" fill="#FF8298"/>
<path id="Vector_2" d="M29.7171 25.3564C25.1477 25.3564 20.5784 25.3564 15.9927 25.3564C14.6284 25.3564 14.1353 24.864 14.1353 23.5016C14.1353 21.7452 14.1353 19.9724 14.1353 18.2161C14.1353 16.9357 14.6777 16.4105 15.9269 16.4105C25.1477 16.4105 34.3686 16.4105 43.5894 16.4105C44.8221 16.4105 45.381 16.9521 45.381 18.1668C45.381 19.9889 45.381 21.8109 45.381 23.6165C45.381 24.8312 44.855 25.3564 43.6387 25.3564C38.9872 25.3564 34.3357 25.3564 29.6842 25.3564H29.7171ZM43.5072 18.3474H16.0584V23.4688H43.5072V18.3474Z" fill="#FF8298"/>
<path id="Vector_3" d="M29.783 35.9439C25.1972 35.9439 20.595 35.9439 16.0093 35.9439C14.6451 35.9439 14.1684 35.4515 14.152 34.089C14.152 32.3327 14.152 30.5599 14.152 28.8035C14.152 27.5396 14.6944 26.9979 15.96 26.9979C25.1808 26.9979 34.4016 26.9979 43.6224 26.9979C44.8552 26.9979 45.414 27.5396 45.414 28.7543C45.414 30.5763 45.414 32.3983 45.414 34.2039C45.414 35.4186 44.888 35.9275 43.6717 35.9275C39.0367 35.9275 34.4016 35.9275 29.783 35.9275V35.9439ZM43.5074 34.0562V28.902H16.0586V34.0562H43.5074Z" fill="#FF8298"/>
<path id="Vector_4" d="M29.7664 46.5314C25.197 46.5314 20.6277 46.5314 16.042 46.5314C14.6284 46.5314 14.1518 46.0554 14.1353 44.6601C14.1353 42.9038 14.1353 41.131 14.1353 39.3746C14.1353 38.1107 14.6777 37.569 15.9433 37.569C25.1477 37.569 34.3521 37.569 43.5565 37.569C44.855 37.569 45.3974 38.1107 45.3974 39.391C45.3974 41.1638 45.3974 42.953 45.3974 44.7258C45.3974 46.0061 44.8714 46.515 43.5894 46.515C38.9708 46.515 34.3686 46.515 29.7499 46.515L29.7664 46.5314ZM16.0584 39.4731V44.6273H43.5236V39.4731H16.0584Z" fill="#FF8298"/>
<path id="Vector_5" d="M24.7869 19.9725C26.6442 19.9725 28.5015 19.9725 30.3588 19.9725C31.1313 19.9725 31.5258 20.2844 31.5258 20.8753C31.5258 21.4826 31.1149 21.8438 30.3424 21.8438C26.6277 21.8438 22.9131 21.8438 19.182 21.8438C18.4917 21.8438 18.0808 21.5647 18.0151 21.0394C17.9493 20.547 18.1794 20.2023 18.6232 20.0382C18.8204 19.9725 19.0505 19.9725 19.2478 19.9725C21.0887 19.9725 22.9295 19.9725 24.7704 19.9725H24.7869Z" fill="#FF8298"/>
<path id="Vector_6" d="M35.4864 19.9725C36.1768 19.9725 36.5712 20.2515 36.637 20.7604C36.7027 21.2364 36.374 21.696 35.848 21.8109C35.1413 21.9751 34.5003 21.7289 34.3195 21.22C34.0565 20.5306 34.5824 19.9725 35.4864 19.9725Z" fill="#FF8298"/>
<path id="Vector_7" d="M38.9706 19.9724C39.7102 19.9724 40.1212 20.3007 40.1376 20.8752C40.1376 21.4662 39.6938 21.8273 38.9377 21.8273C38.1981 21.8273 37.7379 21.4662 37.7543 20.8752C37.7543 20.3007 38.2145 19.956 38.987 19.9724H38.9706Z" fill="#FF8298"/>
<path id="Vector_8" d="M24.7864 30.5599C26.6437 30.5599 28.501 30.5599 30.3583 30.5599C31.1308 30.5599 31.5253 30.8553 31.5418 31.4463C31.5582 32.0536 31.1308 32.4147 30.3748 32.4312C26.6437 32.4312 22.8962 32.4312 19.1651 32.4312C18.4419 32.4312 18.0146 32.0536 18.031 31.4791C18.031 30.921 18.4419 30.5927 19.1487 30.5763C19.2802 30.5763 19.4117 30.5763 19.5596 30.5763C21.3019 30.5763 23.0441 30.5763 24.7864 30.5763V30.5599Z" fill="#FF8298"/>
<path id="Vector_9" d="M38.9213 32.4148C38.1981 32.4148 37.7707 32.0701 37.7543 31.4956C37.7543 30.9047 38.1817 30.5435 38.9377 30.5435C39.7102 30.5435 40.1376 30.8718 40.1376 31.4627C40.1376 32.0537 39.6774 32.3984 38.9213 32.3984V32.4148Z" fill="#FF8298"/>
<path id="Vector_10" d="M35.4869 30.5599C36.1772 30.5599 36.5717 30.8389 36.6374 31.3642C36.7031 31.8402 36.358 32.2998 35.8485 32.3983C35.1253 32.5461 34.5007 32.3163 34.3199 31.8074C34.0733 31.118 34.5829 30.5599 35.4869 30.5599Z" fill="#FF8298"/>
<path id="Vector_11" d="M24.8195 41.1309C26.6768 41.1309 28.5341 41.1309 30.3914 41.1309C31.1475 41.1309 31.5419 41.4592 31.5419 42.0501C31.5419 42.6411 31.1475 42.9858 30.4078 42.9858C26.6603 42.9858 22.9293 42.9858 19.1818 42.9858C18.4421 42.9858 18.0312 42.6411 18.0148 42.0666C18.0148 41.4756 18.4257 41.1309 19.1653 41.1309C21.0391 41.1309 22.9293 41.1309 24.803 41.1309H24.8195Z" fill="#FF8298"/>
<path id="Vector_12" d="M35.4699 41.131C36.1766 41.131 36.5875 41.4429 36.6204 41.9845C36.6533 42.477 36.2917 42.9038 35.7657 42.9694C34.9439 43.0843 34.4015 42.8217 34.2536 42.2472C34.0892 41.5742 34.5823 41.1146 35.4534 41.1146L35.4699 41.131Z" fill="#FF8298"/>
<path id="Vector_13" d="M38.9714 42.9858C38.1495 42.9858 37.7058 42.5919 37.7715 41.9353C37.8373 41.3608 38.2317 41.1146 39.0207 41.1146C39.6946 41.1146 40.089 41.41 40.1383 41.9517C40.2041 42.5755 39.7439 42.9694 38.9714 42.9858Z" fill="#FF8298"/>
</g>
</svg>
